<svg xmlns="http://www.w3.org/2000/svg" style="isolation:isolate" width="425.197" height="77.981"><defs><clipPath id="a"><path d="M0 0h425.197v77.981H0z"/></clipPath></defs><g clip-path="url(#a)"><path d="M347.762 76.336q-16.201 0-16.201-16.063V30.617h-8.375v-8.512h8.375V3.844L344.467 0v22.105h13.73v8.512h-13.73V58.9q0 4.805 1.579 6.796 1.579 1.991 5.423 1.991h7.689v8.649h-11.396zm47.779 1.648q-8.787 0-15.446-3.57-6.659-3.569-10.366-10.16-3.707-6.59-3.707-15.102 0-8.513 3.707-14.965 3.707-6.453 10.366-10.023 6.659-3.57 15.446-3.57 8.787 0 15.514 3.57 6.728 3.57 10.435 10.023 3.707 6.452 3.707 14.828 0 8.512-3.707 15.102t-10.435 10.229q-6.727 3.638-15.514 3.638zm0-10.023q7.689 0 12.357-5.148 4.668-5.149 4.668-13.798 0-8.376-4.668-13.387-4.668-5.011-12.357-5.011-7.689 0-12.219 5.08-4.531 5.08-4.531 13.455 0 8.512 4.599 13.661 4.6 5.148 12.151 5.148zm-77.839 8.375h-14.416V62.332h14.416v14.004z" fill="#F90"/><path d="M32.264 21.418q5.355 0 10.572 2.746l-1.785 6.453q-4.668-2.746-9.198-2.746-5.63 0-9.474 5.011-3.844 5.012-3.844 13.524l-.137 24.576h10.434v5.354H0v-5.354h11.121V27.734H.137v-5.355h18.261v10.297q4.256-11.258 13.866-11.258zm71.531 27.734v1.785H56.978q.686 9.61 6.659 15.445 5.972 5.835 15.033 5.835 6.041 0 11.808-2.608 5.766-2.609 9.61-6.728l2.609 4.806q-4.531 4.805-10.64 7.551-6.11 2.746-13.112 2.746-8.1 0-14.897-3.57-6.796-3.569-10.777-10.022-3.982-6.453-3.982-14.966 0-8.787 3.844-15.239 3.845-6.453 10.229-9.886 6.384-3.432 14.073-3.432 11.807 0 19.084 7.483 7.276 7.482 7.276 20.8zm-46.817-2.883h39.541q0-9.474-5.492-14.691-5.492-5.217-13.592-5.217-8.238 0-14.004 5.354-5.767 5.355-6.453 14.554zm86.084-19.634q-9.611 0-15.789 6.316-6.178 6.316-6.178 16.064 0 10.159 6.041 16.544 6.041 6.384 15.651 6.384 6.453 0 11.121-2.334t9.336-7.14L166.265 67q-9.199 10.709-24.027 10.709-8.238 0-14.759-3.707-6.522-3.707-10.229-10.228-3.707-6.522-3.707-14.759 0-8.101 3.57-14.554 3.57-6.453 9.954-10.022 6.384-3.57 14.485-3.57 6.041 0 10.915 2.334 4.874 2.334 7.345 6.178v-7.139h6.453v17.711h-5.766q-1.099-6.041-5.836-9.679-4.736-3.639-11.601-3.639zm69.197-5.217q5.354 0 10.572 2.746l-1.785 6.453q-4.668-2.746-9.199-2.746-5.629 0-9.473 5.011-3.845 5.012-3.845 13.524l-.137 24.576h10.435v5.354h-28.832v-5.354h11.12V27.734h-10.983v-5.355h18.26v10.297q4.256-11.258 13.867-11.258zm70.707 49.564h10.023v5.354h-17.025l-.274-6.59q-10.16 7.963-21.144 7.963-9.061 0-13.18-5.011t-4.119-12.013V27.734h-9.748v-5.355h17.162v37.756q0 5.218 2.814 8.444 2.815 3.227 8.444 3.227 5.492 0 10.228-1.923 4.737-1.922 9.405-5.766V27.734h-9.885v-5.355h17.299v48.603z" fill="#607D8B"/></g></svg>